<svg width="100" height="100" viewBox="0 0 100 100" fill="none" xmlns="http://www.w3.org/2000/svg">
<path d="M62.5 51.7083L50 39.2083L37.5 51.7083L25 39.2083L15.4583 48.7917L9.54163 42.875L25 27.4583L37.5 39.9583L50 27.4583L62.5 39.9583L75 27.4583L90.4583 42.875L84.5416 48.7917L75 39.2083L62.5 51.7083ZM75 64.2083L84.5416 73.7917L90.4583 67.875L75 52.4583L62.5 64.9583L50 52.4583L37.5 64.9583L25 52.4583L9.54163 67.875L15.4583 73.7917L25 64.2083L37.5 76.7083L50 64.2083L62.5 76.7083L75 64.2083Z" fill="white"/>
</svg>
