<svg width="100" height="100" viewBox="0 0 100 100" fill="none" xmlns="http://www.w3.org/2000/svg">
<path d="M66.6667 8.33334C62.2917 8.33334 57.9584 9.45834 54.1667 11.7083C52.6667 12.5 51.25 13.5833 50 14.75C48.75 13.5833 47.3334 12.5 45.8334 11.7083C42.0417 9.45834 37.7084 8.33334 33.3334 8.33334C26.703 8.33334 20.3441 10.9673 15.6557 15.6557C10.9673 20.3441 8.33337 26.7029 8.33337 33.3333C8.33337 39.9637 10.9673 46.3226 15.6557 51.011C20.3441 55.6994 26.703 58.3333 33.3334 58.3333V50C28.9131 50 24.6739 48.2441 21.5483 45.1184C18.4227 41.9928 16.6667 37.7536 16.6667 33.3333C16.6667 28.9131 18.4227 24.6738 21.5483 21.5482C24.6739 18.4226 28.9131 16.6667 33.3334 16.6667C35.6985 16.6773 38.0347 17.1877 40.1889 18.1642C42.3431 19.1408 44.2666 20.5615 45.8334 22.3333V91.6667H54.1667V22.3333C54.5 21.9583 54.8334 21.5833 55.2084 21.25C56.797 19.7407 58.6676 18.5595 60.7132 17.7739C62.7587 16.9884 64.9392 16.6139 67.1296 16.672C69.3201 16.73 71.4776 17.2194 73.4788 18.1122C75.4799 19.005 77.2853 20.2837 78.7917 21.875C81.8302 25.0799 83.4713 29.3605 83.3541 33.7753C83.2369 38.19 81.371 42.3775 78.1667 45.4167C75 48.375 70.9584 50 66.6667 50V58.3333C73.2971 58.3333 79.656 55.6994 84.3444 51.011C89.0328 46.3226 91.6667 39.9637 91.6667 33.3333C91.6667 26.7029 89.0328 20.3441 84.3444 15.6557C79.656 10.9673 73.2971 8.33334 66.6667 8.33334V8.33334Z" fill="white"/>
</svg>
