<svg width="100" height="100" viewBox="0 0 100 100" fill="none" xmlns="http://www.w3.org/2000/svg">
<path d="M50 16.6667C27.0834 16.6667 8.33337 31.5833 8.33337 50C8.33337 58.8333 15.2084 66.125 24 66.6667H25C29.4203 66.6667 33.6595 64.9107 36.7852 61.7851C39.9108 58.6595 41.6667 54.4203 41.6667 50C41.6667 45.5797 39.9108 41.3405 36.7852 38.2149C33.6595 35.0893 29.4203 33.3333 25 33.3333H24C31.0162 26.7133 40.3561 23.121 50 23.3333C57.375 23.25 64.5834 25.2917 70.8334 29.1667L76.0417 23.9583C68.2421 19.0761 59.2009 16.5445 50 16.6667V16.6667ZM25 41.6667C27.2102 41.6667 29.3298 42.5446 30.8926 44.1074C32.4554 45.6702 33.3334 47.7899 33.3334 50C33.3334 54.625 29.5 58.3333 25 58.3333C22.927 58.3437 20.9245 57.581 19.3836 56.1942C17.8427 54.8074 16.874 52.896 16.6667 50.8333V49.1667C16.874 47.104 17.8427 45.1926 19.3836 43.8058C20.9245 42.419 22.927 41.6563 25 41.6667ZM76 33.3333H75C70.5798 33.3333 66.3405 35.0893 63.2149 38.2149C60.0893 41.3405 58.3334 45.5797 58.3334 50C58.3334 54.4203 60.0893 58.6595 63.2149 61.7851C66.3405 64.9107 70.5798 66.6667 75 66.6667H76C68.9839 73.2867 59.644 76.879 50 76.6667C42.625 76.75 35.4167 74.7083 29.1667 70.8333L24 76C31.7917 80.875 40.7917 83.3333 50 83.3333C72.9167 83.3333 91.6667 68.4167 91.6667 50C91.6667 41.1667 84.7917 33.875 76 33.3333ZM75 58.3333C72.7899 58.3333 70.6703 57.4554 69.1075 55.8926C67.5447 54.3297 66.6667 52.2101 66.6667 50C66.6667 45.375 70.5 41.6667 75 41.6667C77.0731 41.6563 79.0756 42.419 80.6165 43.8058C82.1574 45.1926 83.1261 47.104 83.3334 49.1667V50.8333C83.1261 52.896 82.1574 54.8074 80.6165 56.1942C79.0756 57.581 77.0731 58.3437 75 58.3333V58.3333Z" fill="white"/>
</svg>
