<svg width="50" height="50" viewBox="0 0 50 50" fill="none" xmlns="http://www.w3.org/2000/svg">
<path d="M4.16663 25C4.16643 28.2712 4.93652 31.4964 6.41456 34.4146C7.8926 37.3328 10.037 39.8619 12.6743 41.7973C15.3115 43.7326 18.3674 45.0197 21.5946 45.5544C24.8217 46.0891 28.1295 45.8564 31.25 44.875C27.0199 43.5457 23.3244 40.9014 20.7008 37.3269C18.0773 33.7523 16.6626 29.434 16.6626 25C16.6626 20.566 18.0773 16.2477 20.7008 12.6731C23.3244 9.09861 27.0199 6.45435 31.25 5.12501C28.1295 4.14366 24.8217 3.91091 21.5946 4.44561C18.3674 4.98031 15.3115 6.26742 12.6743 8.20274C10.037 10.1381 7.8926 12.6672 6.41456 15.5854C4.93652 18.5036 4.16643 21.7288 4.16663 25V25Z" fill="white"/>
</svg>
