<svg width="100" height="100" viewBox="0 0 100 100" fill="none" xmlns="http://www.w3.org/2000/svg">
<path d="M83.3333 70.8333C83.3333 74.1485 82.0163 77.3279 79.6721 79.6721C77.3279 82.0164 74.1485 83.3333 70.8333 83.3333C67.5712 83.1691 64.4863 81.7995 62.1767 79.4899C59.8672 77.1803 58.4975 74.0954 58.3333 70.8333C59 64.125 60.4166 57.5 62.5 51.0833C64.75 43.9583 66.125 36.625 66.6666 29.1666C66.5233 23.6865 64.2824 18.4703 60.406 14.5939C56.5296 10.7175 51.3135 8.4766 45.8333 8.33331C40.3531 8.4766 35.1369 10.7175 31.2606 14.5939C27.3842 18.4703 25.1433 23.6865 25 29.1666C25.625 35.5416 27.0833 41.7916 29.1666 47.9166L30.0416 50.8333C21.25 48.0416 11.9166 52.9166 9.12496 61.6666C6.24996 70.4583 11.1666 79.8333 19.9583 82.625C28.75 85.4166 38.0833 80.5416 40.875 71.75C41.4166 70.125 41.6666 68.375 41.6666 66.6666C41 59.4583 39.5833 52.3333 37.125 45.5C35.2791 40.2072 34.0079 34.7313 33.3333 29.1666C33.4975 25.9046 34.8672 22.8196 37.1767 20.5101C39.4863 18.2005 42.5712 16.8308 45.8333 16.6666C52.5833 17 58 22.4166 58.3333 29.1666C57.656 35.8802 56.2591 42.5016 54.1666 48.9166C51.9166 56.0416 50.5416 63.375 50 70.8333C50.1432 76.3135 52.3842 81.5297 56.2606 85.406C60.1369 89.2824 65.3531 91.5234 70.8333 91.6666C76.3586 91.6666 81.6577 89.4717 85.5647 85.5647C89.4717 81.6577 91.6666 76.3587 91.6666 70.8333H83.3333ZM25 75C22.7898 75 20.6702 74.122 19.1074 72.5592C17.5446 70.9964 16.6666 68.8768 16.6666 66.6666C16.6666 64.4565 17.5446 62.3369 19.1074 60.7741C20.6702 59.2113 22.7898 58.3333 25 58.3333C27.2101 58.3333 29.3297 59.2113 30.8925 60.7741C32.4553 62.3369 33.3333 64.4565 33.3333 66.6666C33.3333 68.8768 32.4553 70.9964 30.8925 72.5592C29.3297 74.122 27.2101 75 25 75Z" fill="white"/>
</svg>
