<svg width="100" height="100" viewBox="0 0 100 100" fill="none" xmlns="http://www.w3.org/2000/svg">
<path d="M83.3333 66.6667V75H54.1666V66.2917C66.6666 64 74.8333 52.0833 72.5416 39.5833C70.25 27.0833 58.3333 18.9167 45.8333 21.2083C33.3333 23.5417 25.1666 35.4167 27.4583 47.9167C29.1666 57.25 36.5 64.5833 45.8333 66.2917V75H16.6666V66.6667H28.8333C25.6491 63.7598 23.1073 60.2198 21.3709 56.2735C19.6345 52.3271 18.7418 48.0615 18.75 43.75C18.75 35.462 22.0424 27.5134 27.9029 21.6529C33.7634 15.7924 41.7119 12.5 50 12.5C58.288 12.5 66.2365 15.7924 72.097 21.6529C77.9576 27.5134 81.25 35.462 81.25 43.75C81.25 52.4583 77.625 60.7917 71.1666 66.6667H83.3333ZM83.3333 79.1667H16.6666V87.5H83.3333V79.1667Z" fill="white"/>
</svg>
