<svg width="100" height="100" viewBox="0 0 100 100" fill="none" xmlns="http://www.w3.org/2000/svg">
<path d="M77.0833 79.7083C83.3333 74.0417 83.3333 63.25 83.3333 58.3333C83.3333 53.9131 81.5774 49.6738 78.4518 46.5482C75.3262 43.4226 71.0869 41.6667 66.6667 41.6667C63.75 41.6667 60.8333 42.5 58.3333 44V25C58.3333 21.6848 57.0164 18.5054 54.6722 16.1612C52.328 13.817 49.1485 12.5 45.8333 12.5C42.7083 12.5 39.7917 13.7083 37.5 15.75C35.2095 13.6976 32.2422 12.5627 29.1667 12.5627C26.0912 12.5627 23.1238 13.6976 20.8333 15.75C18.5417 13.6667 15.5833 12.5 12.5 12.5V20.8333C13.6051 20.8333 14.6649 21.2723 15.4463 22.0537C16.2277 22.8351 16.6667 23.8949 16.6667 25V66.6667H25V25C25 23.8949 25.439 22.8351 26.2204 22.0537C27.0018 21.2723 28.0616 20.8333 29.1667 20.8333C30.2717 20.8333 31.3315 21.2723 32.1129 22.0537C32.8943 22.8351 33.3333 23.8949 33.3333 25V66.6667H41.6667V25C41.6667 23.8949 42.1057 22.8351 42.8871 22.0537C43.6685 21.2723 44.7283 20.8333 45.8333 20.8333C46.9384 20.8333 47.9982 21.2723 48.7796 22.0537C49.561 22.8351 50 23.8949 50 25V58.3333C50 63.25 50 74.0417 56.25 79.7083C53 81.4167 49.5 82.6667 45.8333 83.3333V91.6667C51.2083 91.6667 61.8333 86.4167 66.6667 83.875C71.5 86.4167 82.125 91.6667 87.5 91.6667V83.3333C83.8333 82.6667 80.3333 81.4167 77.0833 79.7083ZM66.6667 50C68.8768 50 70.9964 50.878 72.5592 52.4408C74.122 54.0036 75 56.1232 75 58.3333C75 70.5 72.75 75 66.6667 75C60.5833 75 58.3333 70.5 58.3333 58.3333C58.3333 56.1232 59.2113 54.0036 60.7741 52.4408C62.3369 50.878 64.4565 50 66.6667 50V50Z" fill="white"/>
</svg>
