<svg width="100" height="100" viewBox="0 0 100 100" fill="none" xmlns="http://www.w3.org/2000/svg">
<path d="M62.5 54.1667C59.5833 54.1667 56.7083 54.9583 54.1667 56.4583V25C54.1667 21.6848 52.8497 18.5054 50.5055 16.1612C48.1613 13.817 44.9819 12.5 41.6667 12.5C38.5417 12.5 35.625 13.7083 33.3333 15.75C31.0417 13.6667 28.0833 12.5 25 12.5V20.8333C26.1051 20.8333 27.1649 21.2723 27.9463 22.0537C28.7277 22.8351 29.1667 23.8949 29.1667 25V66.6667H37.5V25C37.5 23.8949 37.939 22.8351 38.7204 22.0537C39.5018 21.2723 40.5616 20.8333 41.6667 20.8333C42.7717 20.8333 43.8315 21.2723 44.6129 22.0537C45.3943 22.8351 45.8333 23.8949 45.8333 25V70.8333C45.8333 73.0435 44.9554 75.1631 43.3926 76.7259C41.8298 78.2887 39.7101 79.1667 37.5 79.1667V87.5C42.2917 87.5 46.875 85.4167 50 81.75C51.4318 83.4081 53.1784 84.7656 55.1386 85.7438C57.0988 86.7221 59.2336 87.3016 61.4194 87.4489C63.6051 87.5962 65.7984 87.3082 67.8721 86.6018C69.9458 85.8953 71.8587 84.7844 73.5 83.3333C80.4583 77.4167 81.25 66.875 75.1667 59.9167C73.5923 58.1046 71.646 56.653 69.4602 55.6608C67.2744 54.6685 64.9005 54.1589 62.5 54.1667V54.1667ZM62.5 79.1667C60.2899 79.1667 58.1702 78.2887 56.6074 76.7259C55.0446 75.1631 54.1667 73.0435 54.1667 70.8333C54.1667 68.6232 55.0446 66.5036 56.6074 64.9408C58.1702 63.378 60.2899 62.5 62.5 62.5C64.7101 62.5 66.8298 63.378 68.3926 64.9408C69.9554 66.5036 70.8333 68.6232 70.8333 70.8333C70.8333 73.0435 69.9554 75.1631 68.3926 76.7259C66.8298 78.2887 64.7101 79.1667 62.5 79.1667Z" fill="white"/>
</svg>
