<svg width="100" height="100" viewBox="0 0 100 100" fill="none" xmlns="http://www.w3.org/2000/svg">
<path d="M83.3333 45.8333H75C75.4583 34.125 78.0416 22.5833 82.5416 11.75L75 8.58331C70.0345 20.4073 67.2128 33.0206 66.6666 45.8333H33.3333C32.7916 33 29.9583 20.4166 25 8.58331L17.25 11.75C21.8333 22.5416 24.4583 34.0833 25 45.8333H16.6666V54.1666H25C24.5247 65.8848 21.9711 77.4253 17.4583 88.25L25 91.4166C29.9583 79.5833 32.7916 67 33.3333 54.1666H66.6666C67.2083 67 70.0416 79.5833 75 91.4166L82.75 88.25C78.1666 77.4583 75.5416 65.9166 75 54.1666H83.3333V45.8333V45.8333Z" fill="white"/>
</svg>
