<svg width="100" height="100" viewBox="0 0 100 100" fill="none" xmlns="http://www.w3.org/2000/svg">
<path d="M73.7917 63.7083L67.875 69.625L73.2917 75H66.6667C64.4565 75 62.3369 74.122 60.7741 72.5592C59.2113 70.9964 58.3333 68.8768 58.3333 66.6667V25C58.3333 21.6848 57.0164 18.5054 54.6722 16.1612C52.328 13.817 49.1485 12.5 45.8333 12.5C42.7083 12.5 39.7917 13.7083 37.5 15.75C35.2095 13.6976 32.2422 12.5627 29.1667 12.5627C26.0912 12.5627 23.1238 13.6976 20.8333 15.75C18.5417 13.6667 15.5833 12.5 12.5 12.5V20.8333C13.6051 20.8333 14.6649 21.2723 15.4463 22.0537C16.2277 22.8351 16.6667 23.8949 16.6667 25V66.6667H25V25C25 23.8949 25.439 22.8351 26.2204 22.0537C27.0018 21.2723 28.0616 20.8333 29.1667 20.8333C30.2717 20.8333 31.3315 21.2723 32.1129 22.0537C32.8943 22.8351 33.3333 23.8949 33.3333 25V66.6667H41.6667V25C41.6667 23.8949 42.1057 22.8351 42.8871 22.0537C43.6685 21.2723 44.7283 20.8333 45.8333 20.8333C46.9384 20.8333 47.9982 21.2723 48.7796 22.0537C49.561 22.8351 50 23.8949 50 25V66.6667C50 71.0869 51.7559 75.3262 54.8816 78.4518C58.0072 81.5774 62.2464 83.3333 66.6667 83.3333H73.2917L67.875 88.7083L73.7917 94.625L89.2083 79.1667L73.7917 63.7083Z" fill="white"/>
</svg>
