<svg width="100" height="100" viewBox="0 0 100 100" fill="none" xmlns="http://www.w3.org/2000/svg">
<path d="M64.9583 37.5C69.2858 34.9167 72.8695 31.2555 75.3597 26.8739C77.8499 22.4923 79.1616 17.5398 79.1667 12.5H70.8333C70.8333 18.0253 68.6384 23.3244 64.7314 27.2314C60.8244 31.1384 55.5254 33.3333 50 33.3333C44.4747 33.3333 39.1756 31.1384 35.2686 27.2314C31.3616 23.3244 29.1667 18.0253 29.1667 12.5H20.8333C20.8333 22.75 26.25 32.25 35.0417 37.5C21.2083 45.8333 16.6667 63.6667 25 77.5C33.2083 91.3333 51.125 95.8333 64.9583 87.5C78.7917 79.3333 83.3333 61.4167 75 47.5833C72.5512 43.4334 69.0981 39.966 64.9583 37.5V37.5ZM50 83.3333C44.4747 83.3333 39.1756 81.1384 35.2686 77.2314C31.3616 73.3244 29.1667 68.0253 29.1667 62.5C29.1667 56.9747 31.3616 51.6756 35.2686 47.7686C39.1756 43.8616 44.4747 41.6667 50 41.6667C55.5254 41.6667 60.8244 43.8616 64.7314 47.7686C68.6384 51.6756 70.8333 56.9747 70.8333 62.5C70.8333 68.0253 68.6384 73.3244 64.7314 77.2314C60.8244 81.1384 55.5254 83.3333 50 83.3333V83.3333Z" fill="white"/>
</svg>
